<?xml version="1.0" encoding="utf-8"?>
<!-- Generator: Adobe Illustrator 21.0.0, SVG Export Plug-In . SVG Version: 6.00 Build 0)  -->
<svg version="1.1" id="Layer_1" xmlns="http://www.w3.org/2000/svg" xmlns:xlink="http://www.w3.org/1999/xlink" x="0px" y="0px"
	 viewBox="0 0 270 270" style="enable-background:new 0 0 270 270;" xml:space="preserve">
<path d="M51,12.5c0,4.4-3.6,8-8,8s-8-3.6-8-8s3.6-8,8-8S51,8.1,51,12.5z M104.1,4.5c-4.4,0-8,3.6-8,8s3.6,8,8,8s8-3.6,8-8
	S108.6,4.5,104.1,4.5z M73.5,35.1c-4.4,0-8,3.6-8,8s3.6,8,8,8c4.4,0,8-3.6,8-8S77.9,35.1,73.5,35.1z M134.8,35.1c-4.4,0-8,3.6-8,8
	s3.6,8,8,8c4.4,0,8-3.6,8-8S139.2,35.1,134.8,35.1z M134.8,96.3c-4.4,0-8,3.6-8,8c0,4.4,3.6,8,8,8c4.4,0,8-3.6,8-8
	C142.8,99.9,139.2,96.3,134.8,96.3z M134.8,157.6c-4.4,0-8,3.6-8,8c0,4.4,3.6,8,8,8c4.4,0,8-3.6,8-8
	C142.8,161.2,139.2,157.6,134.8,157.6z M196,35.1c-4.4,0-8,3.6-8,8s3.6,8,8,8s8-3.6,8-8S200.4,35.1,196,35.1z M73.5,65.7
	c-4.4,0-8,3.6-8,8s3.6,8,8,8c4.4,0,8-3.6,8-8S77.9,65.7,73.5,65.7z M134.8,65.7c-4.4,0-8,3.6-8,8s3.6,8,8,8c4.4,0,8-3.6,8-8
	S139.2,65.7,134.8,65.7z M196,65.7c-4.4,0-8,3.6-8,8s3.6,8,8,8s8-3.6,8-8S200.4,65.7,196,65.7z M73.5,4.5c-4.4,0-8,3.6-8,8
	s3.6,8,8,8c4.4,0,8-3.6,8-8S77.9,4.5,73.5,4.5z M134.8,4.5c-4.4,0-8,3.6-8,8s3.6,8,8,8c4.4,0,8-3.6,8-8S139.2,4.5,134.8,4.5z
	 M196,4.5c-4.4,0-8,3.6-8,8s3.6,8,8,8s8-3.6,8-8S200.4,4.5,196,4.5z M43,65.7c-4.4,0-8,3.6-8,8s3.6,8,8,8s8-3.6,8-8
	S47.4,65.7,43,65.7z M104.1,65.7c-4.4,0-8,3.6-8,8s3.6,8,8,8s8-3.6,8-8S108.6,65.7,104.1,65.7z M104.1,96.3c-4.4,0-8,3.6-8,8
	c0,4.4,3.6,8,8,8s8-3.6,8-8C112.1,99.9,108.6,96.3,104.1,96.3z M104.1,157.6c-4.4,0-8,3.6-8,8c0,4.4,3.6,8,8,8s8-3.6,8-8
	C112.1,161.2,108.6,157.6,104.1,157.6z M165.4,96.3c-4.4,0-8,3.6-8,8c0,4.4,3.6,8,8,8s8-3.6,8-8C173.4,99.9,169.8,96.3,165.4,96.3z
	 M165.4,157.6c-4.4,0-8,3.6-8,8c0,4.4,3.6,8,8,8s8-3.6,8-8C173.4,161.2,169.8,157.6,165.4,157.6z M165.4,4.5c-4.4,0-8,3.6-8,8
	s3.6,8,8,8s8-3.6,8-8S169.8,4.5,165.4,4.5z M165.4,65.7c-4.4,0-8,3.6-8,8s3.6,8,8,8s8-3.6,8-8S169.8,65.7,165.4,65.7z M104.1,127
	c-4.4,0-8,3.6-8,8s3.6,8,8,8s8-3.6,8-8S108.6,127,104.1,127z M165.4,127c-4.4,0-8,3.6-8,8s3.6,8,8,8s8-3.6,8-8S169.8,127,165.4,127z
	 M104.1,188.2c-4.4,0-8,3.6-8,8c0,4.4,3.6,8,8,8s8-3.6,8-8C112.1,191.8,108.6,188.2,104.1,188.2z M134.8,127c-4.4,0-8,3.6-8,8
	s3.6,8,8,8c4.4,0,8-3.6,8-8S139.2,127,134.8,127z M134.8,188.2c-4.4,0-8,3.6-8,8c0,4.4,3.6,8,8,8c4.4,0,8-3.6,8-8
	C142.8,191.8,139.2,188.2,134.8,188.2z M165.4,188.2c-4.4,0-8,3.6-8,8c0,4.4,3.6,8,8,8s8-3.6,8-8
	C173.4,191.8,169.8,188.2,165.4,188.2z M134.8,218.9c-4.4,0-8,3.6-8,8c0,4.4,3.6,8,8,8c4.4,0,8-3.6,8-8
	C142.8,222.5,139.2,218.9,134.8,218.9z M104.1,218.9c-4.4,0-8,3.6-8,8c0,4.4,3.6,8,8,8s8-3.6,8-8
	C112.1,222.5,108.6,218.9,104.1,218.9z M165.4,218.9c-4.4,0-8,3.6-8,8c0,4.4,3.6,8,8,8s8-3.6,8-8
	C173.4,222.5,169.8,218.9,165.4,218.9z M104.1,249.5c-4.4,0-8,3.6-8,8c0,4.4,3.6,8,8,8s8-3.6,8-8
	C112.1,253.1,108.6,249.5,104.1,249.5z M134.8,249.5c-4.4,0-8,3.6-8,8c0,4.4,3.6,8,8,8c4.4,0,8-3.6,8-8
	C142.8,253.1,139.2,249.5,134.8,249.5z M165.4,249.5c-4.4,0-8,3.6-8,8c0,4.4,3.6,8,8,8s8-3.6,8-8
	C173.4,253.1,169.8,249.5,165.4,249.5z M226.5,4.5c-4.4,0-8,3.6-8,8s3.6,8,8,8c4.4,0,8-3.6,8-8S230.9,4.5,226.5,4.5z M43,35.1
	c-4.4,0-8,3.6-8,8s3.6,8,8,8s8-3.6,8-8S47.4,35.1,43,35.1z M13,4.5c-4.4,0-8,3.6-8,8s3.6,8,8,8s8-3.6,8-8S17.4,4.5,13,4.5z M13,65.7
	c-4.4,0-8,3.6-8,8s3.6,8,8,8s8-3.6,8-8S17.4,65.7,13,65.7z M13,35.1c-4.4,0-8,3.6-8,8s3.6,8,8,8s8-3.6,8-8S17.4,35.1,13,35.1z
	 M104.1,35.1c-4.4,0-8,3.6-8,8s3.6,8,8,8s8-3.6,8-8S108.6,35.1,104.1,35.1z M165.4,35.1c-4.4,0-8,3.6-8,8s3.6,8,8,8s8-3.6,8-8
	S169.8,35.1,165.4,35.1z M226.5,35.1c-4.4,0-8,3.6-8,8s3.6,8,8,8c4.4,0,8-3.6,8-8S230.9,35.1,226.5,35.1z M226.5,65.7
	c-4.4,0-8,3.6-8,8s3.6,8,8,8c4.4,0,8-3.6,8-8S230.9,65.7,226.5,65.7z M257,4.5c-4.4,0-8,3.6-8,8s3.6,8,8,8c4.4,0,8-3.6,8-8
	S261.4,4.5,257,4.5z M257,35.1c-4.4,0-8,3.6-8,8s3.6,8,8,8c4.4,0,8-3.6,8-8S261.4,35.1,257,35.1z M257,65.7c-4.4,0-8,3.6-8,8
	s3.6,8,8,8c4.4,0,8-3.6,8-8S261.4,65.7,257,65.7z"/>
</svg>
