<?xml version="1.0" encoding="utf-8"?>
<!-- Generator: Adobe Illustrator 20.1.0, SVG Export Plug-In . SVG Version: 6.00 Build 0)  -->
<!DOCTYPE svg PUBLIC "-//W3C//DTD SVG 1.1//EN" "http://www.w3.org/Graphics/SVG/1.1/DTD/svg11.dtd">
<svg version="1.1" id="Layer_1" xmlns="http://www.w3.org/2000/svg" xmlns:xlink="http://www.w3.org/1999/xlink" x="0px" y="0px"
	 width="81.8px" height="33.8px" viewBox="0 0 81.8 33.8" style="enable-background:new 0 0 81.8 33.8;" xml:space="preserve">
<g>
	<g>
		<g>
			<path d="M5.4,33.5V20.8l-5.4,0l0-2.5l13.8,0v2.5l-5.4,0v12.7L5.4,33.5z"/>
			<path d="M15.6,27.6v-9.3l3,0v9c0,2.6,1.1,4,3.5,4c2.4,0,3.5-1.3,3.5-4v-9l3,0v9.3c0,4.4-2.9,6.2-6.5,6.2
				C18.4,33.8,15.6,32,15.6,27.6z"/>
			<path d="M40.3,33.5c-0.3-0.4-0.5-1.4-0.6-3.1c-0.1-1.7-0.9-2.5-2.6-2.5l-3.6,0v5.6l-3,0V18.3l6.9,0c3.9,0,5.8,1.8,5.8,4.6
				c0,2.3-1.5,3.6-3.3,3.9c1.7,0.3,2.6,1.3,2.8,3.1c0.2,2.2,0.3,3,0.8,3.6L40.3,33.5z M37,25.5c2.2,0,3.2-0.7,3.2-2.4
				c0-1.5-1-2.4-3.2-2.4l-3.5,0v4.8L37,25.5z"/>
			<path d="M55.1,28.4V18.3l2.8,0v15.2l-2.4,0l-7.8-10.7v10.7l-2.8,0V18.3l3,0L55.1,28.4z"/>
			<path d="M59.9,24.9l21.6,0v2l-21.6,0V24.9z"/>
		</g>
		<g>
			<path d="M79,5.8c-0.1-2.4-1.8-3.4-4-3.4c-1.9,0-3.1,0.7-3.1,2c0,1.2,0.9,1.6,2.5,1.9l2.9,0.5c2.4,0.4,4,1.7,4,4.2
				c0,2.8-2.2,4.7-5.8,4.7c-4,0-6.2-2-6.3-5.4l2.8-0.1c0.1,2.1,1.4,3.2,3.5,3.2c1.8,0,2.8-0.8,2.8-2.1c0-1.1-0.8-1.5-2.2-1.8L73.4,9
				c-3-0.6-4.4-2-4.4-4.4c0-3,2.6-4.6,6-4.6c3.9,0,6.7,2,6.7,5.7L79,5.8z"/>
			<path d="M63.4,0.3V13h5.4v2.5H55V13h5.4V0.3H63.4z"/>
			<path d="M42.5,15.5h-3.3l5.9-9.3V0.3h2.9v5.9l5.9,9.3h-3.3L46.5,9L42.5,15.5z"/>
			<path d="M35.3,15.5V2.8h-8V0.3h11v15.2H35.3z"/>
			<path d="M14.1,0.3l11.3,0v15.2H14.3V13h8.2V9.3h-6.4V6.8h6.4v-4h-8.4V0.3z"/>
		</g>
	</g>
</g>
</svg>
