<?xml version="1.0" encoding="utf-8"?>
<!-- Generator: Adobe Illustrator 20.1.0, SVG Export Plug-In . SVG Version: 6.00 Build 0)  -->
<!DOCTYPE svg PUBLIC "-//W3C//DTD SVG 1.1//EN" "http://www.w3.org/Graphics/SVG/1.1/DTD/svg11.dtd">
<svg version="1.1" id="Layer_1" xmlns="http://www.w3.org/2000/svg" xmlns:xlink="http://www.w3.org/1999/xlink" x="0px" y="0px"
	 width="36.2px" height="43.6px" viewBox="0 0 36.2 43.6" style="enable-background:new 0 0 36.2 43.6;" xml:space="preserve">
<style type="text/css">
	.st0{fill:#FFFFFF;}
</style>
<g>
	<path class="st0" d="M28.3,7.9c5.7,5.7,5.7,14.9,0,20.5L18,38.7L7.7,28.4c-5.7-5.7-5.7-14.9,0-20.5S22.6,2.3,28.3,7.9 M30.7,5.4
		c-7-7-18.4-7-25.5,0c-7,7-7,18.4,0,25.5L18,43.6l12.7-12.7C37.8,23.9,37.8,12.5,30.7,5.4L30.7,5.4z"/>
	<path class="st0" d="M20.4,15.8c1.3,1.3,1.3,3.5,0,4.8c-1.3,1.3-3.5,1.3-4.8,0c-1.3-1.3-1.3-3.5,0-4.8S19.1,14.5,20.4,15.8
		 M22.9,13.3c-2.7-2.7-7-2.7-9.7,0c-2.7,2.7-2.7,7,0,9.7c2.7,2.7,7,2.7,9.7,0C25.5,20.3,25.5,16,22.9,13.3L22.9,13.3z"/>
</g>
</svg>
