<?xml version="1.0" encoding="utf-8"?>
<!-- Generator: Adobe Illustrator 20.1.0, SVG Export Plug-In . SVG Version: 6.00 Build 0)  -->
<!DOCTYPE svg PUBLIC "-//W3C//DTD SVG 1.1//EN" "http://www.w3.org/Graphics/SVG/1.1/DTD/svg11.dtd">
<svg version="1.1" id="Layer_1" xmlns="http://www.w3.org/2000/svg" xmlns:xlink="http://www.w3.org/1999/xlink" x="0px" y="0px"
	 width="287.4px" height="287.7px" viewBox="0 0 287.4 287.7" style="enable-background:new 0 0 287.4 287.7;" xml:space="preserve"
	>
<style type="text/css">
	.st0{fill:none;stroke:#3c00ff;stroke-width:5.2261;stroke-miterlimit:10;}
	.st1{fill:none;stroke:#3c00ff;stroke-width:5.2261;stroke-linejoin:bevel;stroke-miterlimit:10;}
</style>
<g>
	<g>
		<polygon class="st0" points="58.5,2.6 2.6,2.6 2.6,58.5 30.6,86.4 86.4,86.4 86.4,30.6 		"/>
		<rect x="2.6" y="2.6" class="st1" width="55.9" height="55.9"/>
		<rect x="30.6" y="30.6" class="st1" width="55.9" height="55.9"/>
		<line class="st1" x1="58.5" y1="58.5" x2="86.4" y2="86.4"/>
		<line class="st1" x1="2.6" y1="2.6" x2="30.6" y2="30.6"/>
	</g>
	<g>
		<polygon class="st0" points="157.7,2.6 101.8,2.6 101.8,58.5 129.7,86.4 185.6,86.4 185.6,30.6 		"/>
		<rect x="101.8" y="2.6" class="st1" width="55.9" height="55.9"/>
		<rect x="129.7" y="30.6" class="st1" width="55.9" height="55.9"/>
		<line class="st1" x1="157.7" y1="58.5" x2="185.6" y2="86.4"/>
		<line class="st1" x1="101.8" y1="2.6" x2="129.7" y2="30.6"/>
	</g>
	<g>
		<polygon class="st0" points="157.7,101.8 101.8,101.8 101.8,157.7 129.7,185.6 185.6,185.6 185.6,129.7 		"/>
		<rect x="101.8" y="101.8" class="st1" width="55.9" height="55.9"/>
		<rect x="129.7" y="129.7" class="st1" width="55.9" height="55.9"/>
		<line class="st1" x1="157.7" y1="157.7" x2="185.6" y2="185.6"/>
		<line class="st1" x1="101.8" y1="101.8" x2="129.7" y2="129.7"/>
	</g>
	<g>
		<polygon class="st0" points="157.7,201 101.8,201 101.8,256.9 129.7,284.8 185.6,284.8 185.6,228.9 		"/>
		<rect x="101.8" y="201" class="st1" width="55.9" height="55.9"/>
		<rect x="129.7" y="228.9" class="st1" width="55.9" height="55.9"/>
		<line class="st1" x1="157.7" y1="256.9" x2="185.6" y2="284.8"/>
		<line class="st1" x1="101.8" y1="201" x2="129.7" y2="228.9"/>
	</g>
	<g>
		<polygon class="st0" points="256.9,2.6 201,2.6 201,58.5 228.9,86.4 284.8,86.4 284.8,30.6 		"/>
		<rect x="201" y="2.6" class="st1" width="55.9" height="55.9"/>
		<rect x="228.9" y="30.6" class="st1" width="55.9" height="55.9"/>
		<line class="st1" x1="256.9" y1="58.5" x2="284.8" y2="86.4"/>
		<line class="st1" x1="201" y1="2.6" x2="228.9" y2="30.6"/>
	</g>
</g>
</svg>
